<?xml version="1.0" encoding="UTF-8" standalone="no"?>
<!-- Created by diasvg.py -->
<svg width="15.250cm" height="14.120cm" viewBox="1.500 -4.777 16.750 9.343"
 xmlns="http://www.w3.org/2000/svg"
 xmlns:xlink="http://www.w3.org/1999/xlink">
<line x1="6.575" y1="3.600" x2="6.575" y2="3.600" stroke="#000000" stroke-width="0.200" />
<path stroke="#000000" fill="none" stroke-width="0.200"  d="M 6.048,-3.829 C 6.048,-3.829 6.048,-0.716 9.161,-0.716 C 12.273,-0.716 12.273,-3.829 12.273,-3.829 "/>
<path stroke="none" fill="#FFFFFF" stroke-width="0.200" d="M 4.972,4.405 C 3.791,4.381 1.500,4.875 1.822,5.933 C 2.144,6.991 3.684,7.226 4.328,6.921 C 4.972,6.615 3.326,8.402 6.476,8.872 C 9.626,9.343 11.237,8.590 10.772,8.049 C 10.306,7.508 13.528,9.319 15.032,8.284 C 16.535,7.250 13.492,6.262 14.137,6.403 C 14.781,6.544 16.750,6.356 16.106,4.593 C 15.461,2.829 9.662,4.193 10.306,3.934 C 10.951,3.676 9.340,2.382 7.335,2.641 C 5.330,2.900 5.188,3.369 4.973,4.404 L 4.972,4.405 "/>
<path stroke="#000000" fill="none" stroke-width="0.200"  d="M 4.972,4.405 C 3.791,4.381 1.500,4.875 1.822,5.933 C 2.144,6.991 3.684,7.226 4.328,6.921 C 4.972,6.615 3.326,8.402 6.476,8.872 C 9.626,9.343 11.237,8.590 10.772,8.049 C 10.306,7.508 13.528,9.319 15.032,8.284 C 16.535,7.250 13.492,6.262 14.137,6.403 C 14.781,6.544 16.750,6.356 16.106,4.593 C 15.461,2.829 9.662,4.193 10.306,3.934 C 10.951,3.676 9.340,2.382 7.335,2.641 C 5.330,2.900 5.188,3.369 4.973,4.404 L 4.972,4.405 "/>
<text x="9.534" y="6.620"  fill="#000000" text-anchor="middle" font-size="2.54" font-family="Droid Sans" font-style="normal" font-weight="400">
OSC</text>
<line x1="9.161" y1="-0.716" x2="9.148" y2="2.711" stroke="#000000" stroke-width="0.200" />
</svg>